<?xml version="1.0" encoding="UTF-8" standalone="no"?>
<!-- Created with Inkscape (http://www.inkscape.org/) -->

<svg
   width="17.444618mm"
   height="14.678782mm"
   viewBox="0 0 17.444618 14.678782"
   version="1.1"
   id="svg1"
   xmlns="http://www.w3.org/2000/svg"
   xmlns:svg="http://www.w3.org/2000/svg">
  <defs
     id="defs1">
    <clipPath
       id="clip_0">
      <path
         transform="matrix(1,0,0,-1,0,792)"
         d="m 90,365.227 h 72 v 61.54599 H 90 Z"
         id="path1" />
    </clipPath>
    <clipPath
       id="clipPath2">
      <path
         transform="matrix(1,0,0,-1,0,792)"
         d="m 90,365.227 h 72 v 61.54599 H 90 Z"
         id="path2" />
    </clipPath>
  </defs>
  <g
     id="layer1"
     transform="translate(-61.170623,-89.085306)">
    <g
       clip-path="url(#clip_0)"
       id="use1"
       transform="matrix(0.26458333,0,0,0.26458333,36.555421,-8.3502941)">
      <path
         transform="matrix(1,0,0,-1,131.2995,423.7394)"
         d="m 0,0 c -9.769,0 -18.991,7.787 -21.438,10.517 -1.448,1.829 -2.296,4.062 -2.427,6.391 -0.069,0.789 -0.218,1.568 -0.445,2.326 -0.122,0.384 -0.89,0.829 -1.679,1.274 -1.945,0.89 -3.529,2.417 -4.49,4.328 -1.78,4.045 0.425,9.243 1.921,12.014 1.127,1.544 2.585,2.815 4.268,3.721 0.975,0.572 1.884,1.251 2.71,2.023 1.058,1.778 1.714,3.766 1.921,5.824 0.385,4.733 8.697,6.189 11.731,6.189 1.906,-0.07 3.763,-0.62 5.4,-1.597 0.736,-0.422 1.516,-0.761 2.326,-1.012 0.384,-0.121 1.112,0.223 1.921,0.607 2.14,1.194 4.63,1.602 7.038,1.153 3.904,-0.789 6.068,-5.643 7.949,-9.546 0.523,-1.323 1.202,-2.58 2.022,-3.742 0.405,-0.344 0.749,-0.384 1.659,-0.425 1.952,0.104 3.834,-0.739 5.056,-2.265 2.265,-2.75 2.791,-11.609 1.618,-16.685 C 26.813,18.902 25.557,16.95 23.663,15.816 22.683,15.495 21.897,14.754 21.519,13.793 20.861,12.292 19.848,10.973 18.566,9.951 17.049,8.647 15.214,7.768 13.247,7.402 11.99,7.161 10.776,6.732 9.647,6.128 8.939,5.744 8.838,5.42 8.575,4.591 7.665,1.578 6.027,0 0,0 m -8.09,50.562 c -2.993,0 -7.18,-1.496 -7.544,-2.427 -0.227,-2.688 -1.049,-5.293 -2.407,-7.624 -1.103,-1.401 -2.479,-2.564 -4.045,-3.418 -1.025,-0.624 -1.975,-1.364 -2.831,-2.205 -1.375,-2.589 -2.67,-6.351 -1.78,-8.353 0.627,-1.083 1.594,-1.929 2.751,-2.407 1.613,-0.682 2.897,-1.966 3.58,-3.579 0.305,-1.003 0.515,-2.032 0.626,-3.075 0.025,-1.496 0.505,-2.949 1.376,-4.166 1.638,-1.82 10.112,-9.162 18.364,-9.162 4.045,0 4.308,0.627 4.611,1.578 0.37,1.745 1.507,3.231 3.095,4.045 1.447,0.741 2.993,1.272 4.591,1.577 1.34,0.206 2.598,0.772 3.64,1.638 0.807,0.651 1.44,1.492 1.841,2.448 0.784,1.856 2.287,3.316 4.166,4.045 0.182,0 0.769,0.829 1.173,2.912 0.971,4.915 0,11.589 -0.87,12.641 -0.606,0.728 -0.95,0.748 -2.022,0.768 -1.529,-0.06 -3.025,0.46 -4.187,1.456 -1.361,1.51 -2.418,3.268 -3.114,5.178 -1.254,2.771 -3.155,6.957 -4.996,7.261 -1.556,0.26 -3.155,-0.041 -4.51,-0.85 -1.427,-0.875 -3.132,-1.178 -4.773,-0.849 -1.092,0.352 -2.143,0.819 -3.135,1.395 -1.041,0.633 -2.222,1.001 -3.438,1.072 z M 8.656,14.825 H 8.252 c -3.416,0.606 -6.382,2.705 -8.09,5.724 -0.56,1.539 -0.309,3.256 0.667,4.57 0.988,1.575 2.712,2.536 4.571,2.549 2.856,-0.066 5.572,-1.249 7.564,-3.297 0.962,-1.057 1.4,-2.489 1.193,-3.903 -0.788,-4.895 -3.559,-5.744 -5.4,-5.744 z M 5.299,25.342 C 4.245,25.326 3.271,24.778 2.71,23.886 2.213,23.202 2.084,22.317 2.366,21.519 3.721,19.32 5.911,17.765 8.434,17.211 c 1.254,-0.101 2.771,0.243 3.317,3.681 0.116,0.739 -0.124,1.489 -0.648,2.023 C 9.556,24.37 7.524,25.199 5.4,25.241 Z m -2.933,5.784 c -0.6,-0.064 -1.205,-0.043 -1.8,0.061 -1.681,0.366 -2.927,1.785 -3.074,3.499 -0.182,2.649 2.144,6.067 4.409,7.726 0.908,0.93 2.22,1.347 3.499,1.112 C 6.623,42.932 7.498,41.802 7.766,40.47 8.65,38.005 8.429,35.278 7.16,32.987 5.975,31.654 4.248,30.932 2.467,31.025 Z M 4.652,41.299 C 3.776,40.973 3.002,40.422 2.407,39.702 1.003,38.45 0.098,36.733 -0.142,34.868 c 0.12,-0.716 0.681,-1.276 1.396,-1.396 1.42,-0.453 2.975,-0.087 4.045,0.951 0.755,1.536 0.886,3.305 0.364,4.935 -0.112,0.741 -0.468,1.424 -1.011,1.941 M -9.809,14.805 h -0.89 c -2.123,0.249 -3.907,1.709 -4.571,3.741 -0.855,1.914 -0.591,4.143 0.688,5.805 1.06,1.067 2.667,1.372 4.045,0.768 3.458,-1.132 6.067,-4.55 5.44,-7.321 -0.182,-0.607 -0.97,-2.912 -4.712,-2.912 z m -2.285,8.292 c -0.289,0.018 -0.571,-0.093 -0.769,-0.303 -0.619,-1.004 -0.687,-2.252 -0.182,-3.317 0.359,-1.165 1.346,-2.026 2.548,-2.225 0.829,0 2.791,-0.101 3.034,1.112 0.243,1.214 -1.375,3.782 -3.863,4.591 -0.247,0.086 -0.507,0.134 -0.768,0.142 m -21.742,18.202 c -0.33,-0.02 -0.661,-0.02 -0.991,0 -1.145,0.177 -2.145,0.87 -2.71,1.881 -1.477,2.65 -0.344,7.382 0.222,8.717 1.553,3.038 5.173,4.382 8.333,3.095 4.045,-1.477 6.229,-4.713 5.4,-7.868 -0.829,-3.155 -6.412,-5.825 -10.254,-5.825 m 2.406,10.578 c -1.044,0.024 -2.028,-0.487 -2.609,-1.355 -0.728,-1.739 -0.93,-5.319 -0.303,-5.704 2.569,-0.404 6.998,2.023 7.322,3.216 0.323,1.193 -1.315,2.933 -3.156,3.62 -0.4,0.154 -0.825,0.229 -1.254,0.223"
         fill="#231f20"
         id="path3" />
    </g>
  </g>
</svg>
