<?xml version="1.0" encoding="UTF-8" standalone="no"?>
<!-- Created with Inkscape (http://www.inkscape.org/) -->

<svg
   width="17.446096mm"
   height="17.444778mm"
   viewBox="0 0 17.446096 17.444778"
   version="1.1"
   id="svg1"
   inkscape:version="1.3.1 (91b66b0783, 2023-11-16)"
   sodipodi:docname="comet.svg"
   xmlns:inkscape="http://www.inkscape.org/namespaces/inkscape"
   xmlns:sodipodi="http://sodipodi.sourceforge.net/DTD/sodipodi-0.dtd"
   xmlns="http://www.w3.org/2000/svg"
   xmlns:svg="http://www.w3.org/2000/svg">
  <sodipodi:namedview
     id="namedview1"
     pagecolor="#ffffff"
     bordercolor="#000000"
     borderopacity="0.25"
     inkscape:showpageshadow="2"
     inkscape:pageopacity="0.0"
     inkscape:pagecheckerboard="0"
     inkscape:deskcolor="#d1d1d1"
     inkscape:document-units="mm"
     inkscape:zoom="1.0449705"
     inkscape:cx="135.889"
     inkscape:cy="116.27122"
     inkscape:window-width="2560"
     inkscape:window-height="1369"
     inkscape:window-x="-8"
     inkscape:window-y="183"
     inkscape:window-maximized="1"
     inkscape:current-layer="layer1" />
  <defs
     id="defs1">
    <clipPath
       id="clip_1">
      <path
         transform="matrix(1,0,0,-1,0,792)"
         d="m 269.997,360 h 72.005 v 72 h -72.005 z"
         id="path2" />
    </clipPath>
  </defs>
  <g
     inkscape:label="Layer 1"
     inkscape:groupmode="layer"
     id="layer1"
     transform="translate(-69.056249,-117.73958)">
    <g
       clip-path="url(#clip_1)"
       id="g8"
       transform="matrix(0.26458333,0,0,0.26458333,-3.183149,21.687022)">
      <path
         transform="matrix(1,0,0,-1,291.6238,428.9653)"
         d="m 0,0 c -4.934,-0.022 -9.67,1.938 -13.146,5.44 -7.26,7.257 -7.263,19.025 -0.007,26.285 0.003,0.003 0.005,0.005 0.007,0.007 l 0.223,0.223 c 0.618,0.659 1.295,1.262 2.022,1.8 L 9,49.368 9.222,45.323 c 0.007,-0.611 0.245,-1.197 0.668,-1.638 0.222,-0.142 0.869,0 1.921,0.445 L 47.345,65.932 25.503,30.418 c -0.546,-1.052 -0.586,-1.699 -0.445,-2.023 0.142,-0.323 1.173,-0.647 1.638,-0.667 L 30.741,27.505 15.229,7.746 C 14.634,6.893 13.956,6.101 13.207,5.38 9.705,1.886 4.946,-0.052 0,0 M 6.067,41.642 -8.332,30.337 C -8.9,29.928 -9.428,29.468 -9.91,28.961 l -0.222,-0.242 c -5.176,-5.994 -4.513,-15.049 1.481,-20.225 5.383,-4.648 13.36,-4.648 18.743,0 0.595,0.548 1.137,1.151 1.618,1.8 l 11.305,14.38 c -0.696,0.437 -1.278,1.033 -1.698,1.739 -0.962,1.949 -0.808,4.263 0.404,6.067 v 0.142 L 34.361,52.968 13.773,40.348 C 11.962,39.156 9.659,39.003 7.706,39.943 7.022,40.374 6.453,40.964 6.047,41.662 Z M -0.384,8.777 c -5.216,0.018 -9.431,4.261 -9.413,9.477 0.017,5.216 4.26,9.43 9.476,9.413 C 4.895,27.649 9.11,23.407 9.092,18.191 9.084,15.689 8.083,13.293 6.31,11.528 4.534,9.757 2.124,8.767 -0.384,8.777 m 0,16.18 C -4.048,25 -7.052,22.064 -7.095,18.401 c -0.042,-3.663 2.893,-6.668 6.556,-6.71 3.664,-0.043 6.668,2.892 6.711,6.556 0.02,1.747 -0.65,3.431 -1.864,4.688 -1.247,1.238 -2.935,1.929 -4.692,1.921 z"
         fill="#231f20"
         id="path8" />
    </g>
  </g>
</svg>
