<?xml version="1.0" encoding="UTF-8" standalone="no"?>
<!-- Created with Inkscape (http://www.inkscape.org/) -->

<svg
   width="17.444508mm"
   height="17.444773mm"
   viewBox="0 0 17.444508 17.444773"
   version="1.1"
   id="svg1"
   inkscape:version="1.3.1 (91b66b0783, 2023-11-16)"
   sodipodi:docname="dwarf_planet.svg"
   xmlns:inkscape="http://www.inkscape.org/namespaces/inkscape"
   xmlns:sodipodi="http://sodipodi.sourceforge.net/DTD/sodipodi-0.dtd"
   xmlns="http://www.w3.org/2000/svg"
   xmlns:svg="http://www.w3.org/2000/svg">
  <sodipodi:namedview
     id="namedview1"
     pagecolor="#ffffff"
     bordercolor="#000000"
     borderopacity="0.25"
     inkscape:showpageshadow="2"
     inkscape:pageopacity="0.0"
     inkscape:pagecheckerboard="0"
     inkscape:deskcolor="#d1d1d1"
     inkscape:document-units="mm"
     inkscape:zoom="1.0449705"
     inkscape:cx="285.1755"
     inkscape:cy="254.07415"
     inkscape:window-width="2560"
     inkscape:window-height="1369"
     inkscape:window-x="-8"
     inkscape:window-y="183"
     inkscape:window-maximized="1"
     inkscape:current-layer="layer1" />
  <defs
     id="defs1">
    <clipPath
       id="clip_2">
      <path
         transform="matrix(1,0,0,-1,0,792)"
         d="m 450,108 h 72 v 72 h -72 z"
         id="path3" />
    </clipPath>
  </defs>
  <g
     inkscape:label="Layer 1"
     inkscape:groupmode="layer"
     id="layer1"
     transform="translate(-29.633327,-81.227077)">
    <g
       clip-path="url(#clip_2)"
       id="g9"
       transform="matrix(0.26458333,0,0,0.26458333,-90.231917,-81.500587)">
      <path
         transform="matrix(1,0,0,-1,486,615.0337)"
         d="m 0,0 c -18.207,0 -32.966,-14.76 -32.966,-32.966 0,-18.207 14.759,-32.967 32.966,-32.967 18.207,0 32.966,14.76 32.966,32.967 C 32.944,-14.769 18.198,-0.022 0,0 M 0,-4.571 C 9.952,-4.584 19.166,-9.821 24.27,-18.364 16.433,-20.907 8.239,-22.177 0,-22.126 c -8.237,-0.044 -16.429,1.219 -24.27,3.742 0.618,1.081 1.314,2.115 2.083,3.094 3.482,-0.991 7.03,-1.728 10.618,-2.204 l 0.263,2.022 c -3.213,0.398 -6.395,1.013 -9.525,1.841 5.374,5.795 12.927,9.08 20.831,9.06 m 0,-56.771 c -10.942,0.019 -20.904,6.309 -25.625,16.18 7.045,-2.379 14.393,-3.742 21.823,-4.045 v 2.023 c -7.235,0.267 -14.394,1.575 -21.256,3.883 -0.546,0.182 -1.072,0.404 -1.598,0.607 -0.963,2.597 -1.529,5.324 -1.679,8.089 0.85,-0.343 1.739,-0.667 2.629,-0.991 5.108,-1.745 10.391,-2.925 15.755,-3.519 l 0.223,2.023 c -5.22,0.572 -10.362,1.718 -15.33,3.418 -1.133,0.404 -2.245,0.829 -3.317,1.274 0.038,2.287 0.351,4.562 0.93,6.775 l 1.739,-0.627 c 8.282,-2.781 16.97,-4.162 25.706,-4.085 v 2.022 c -8.518,-0.039 -16.985,1.328 -25.058,4.045 l -1.841,0.465 c 0.445,1.231 0.979,2.428 1.598,3.58 8.158,-2.714 16.703,-4.08 25.301,-4.045 8.598,-0.037 17.144,1.329 25.301,4.045 0.605,-1.188 1.126,-2.419 1.557,-3.681 l -0.505,-0.202 c -3.436,-1.261 -6.966,-2.249 -10.557,-2.953 l 0.364,-1.921 c 3.707,0.706 7.347,1.728 10.88,3.054 l 0.385,0.141 c 0.637,-2.374 0.956,-4.822 0.95,-7.28 0.004,-3.326 -0.578,-6.625 -1.719,-9.749 l -0.303,-0.121 -0.627,-0.223 c -0.647,-0.222 -1.295,-0.465 -2.023,-0.667 -0.728,-0.202 -0.768,-0.243 -1.152,-0.364 l -1.558,-0.465 -1.233,-0.304 -1.598,-0.404 -1.234,-0.263 c -4.831,-1.024 -9.746,-1.6 -14.683,-1.719 v -2.023 c 4.631,0.121 9.244,0.622 13.793,1.497 l 1.254,0.263 1.274,0.283 1.659,0.405 1.415,0.404 1.639,0.486 1.173,0.343 1.233,0.445 C 20.959,-55.126 10.955,-61.396 0,-61.342 M 21.499,-36.89 C 14.492,-38.787 7.259,-39.726 0,-39.681 c -2.184,0 -4.389,0 -6.553,0.243 l 0.142,2.022 c 2.022,-0.162 4.267,-0.242 6.411,-0.242 7.081,-0.043 14.135,0.869 20.973,2.71 z"
         fill="#231f20"
         id="path9" />
    </g>
  </g>
</svg>
