<?xml version="1.0" encoding="UTF-8" standalone="no"?>
<!-- Created with Inkscape (http://www.inkscape.org/) -->

<svg
   width="17.444359mm"
   height="12.5952mm"
   viewBox="0 0 17.444359 12.5952"
   version="1.1"
   id="svg1"
   inkscape:version="1.3.1 (91b66b0783, 2023-11-16)"
   sodipodi:docname="gas_cloud.svg"
   xmlns:inkscape="http://www.inkscape.org/namespaces/inkscape"
   xmlns:sodipodi="http://sodipodi.sourceforge.net/DTD/sodipodi-0.dtd"
   xmlns="http://www.w3.org/2000/svg"
   xmlns:svg="http://www.w3.org/2000/svg">
  <sodipodi:namedview
     id="namedview1"
     pagecolor="#ffffff"
     bordercolor="#000000"
     borderopacity="0.25"
     inkscape:showpageshadow="2"
     inkscape:pageopacity="0.0"
     inkscape:pagecheckerboard="0"
     inkscape:deskcolor="#d1d1d1"
     inkscape:document-units="mm"
     inkscape:zoom="1.0449705"
     inkscape:cx="-62.202711"
     inkscape:cy="131.58266"
     inkscape:window-width="2560"
     inkscape:window-height="1369"
     inkscape:window-x="-8"
     inkscape:window-y="183"
     inkscape:window-maximized="1"
     inkscape:current-layer="layer1" />
  <defs
     id="defs1">
    <clipPath
       id="clip_3">
      <path
         transform="matrix(1,0,0,-1,0,792)"
         d="m 269.997,117.164 h 72 v 53.672 h -72 z"
         id="path4" />
    </clipPath>
  </defs>
  <g
     inkscape:label="Layer 1"
     inkscape:groupmode="layer"
     id="layer1"
     transform="translate(-121.44375,-113.77083)">
    <g
       clip-path="url(#clip_3)"
       id="g11"
       transform="matrix(0.26458333,0,0,0.26458333,49.204219,-51.381577)">
      <path
         transform="matrix(1,0,0,-1,314.49,671.8019)"
         d="m 0,0 c -2.798,0.009 -5.538,0.801 -7.91,2.286 -4.316,-2.658 -9.674,-2.984 -14.281,-0.87 l 2.023,4.046 c 1.386,-0.652 2.898,-0.991 4.43,-0.991 2.374,-0.02 4.68,0.796 6.514,2.306 l 1.416,1.112 1.395,-1.112 C -2.008,3.197 4.464,3.866 8.043,8.27 8.454,8.775 8.815,9.318 9.123,9.892 l 0.567,1.032 1.173,0.121 c 5.74,0.642 9.873,5.815 9.232,11.556 -0.642,5.74 -5.816,9.873 -11.556,9.231 C 5.466,31.489 2.703,29.803 0.991,27.228 l -3.823,2.549 c 2.768,4.126 7.412,6.6 12.38,6.595 1.53,-0.005 3.05,-0.237 4.511,-0.688 C 21.934,33.166 26.276,24.741 23.757,16.866 22.095,11.668 17.736,7.787 12.38,6.736 9.676,2.522 5.007,-0.018 0,0 m -13.432,14.16 -3.925,2.185 c -2.806,-5.049 -9.173,-6.867 -14.222,-4.06 -5.048,2.806 -6.866,9.173 -4.06,14.222 1.645,2.959 4.621,4.939 7.986,5.313 l 1.821,0.182 0.182,1.801 c 0.592,5.7 5.693,9.842 11.393,9.25 2.208,-0.229 4.283,-1.16 5.923,-2.656 l 1.254,-1.112 1.416,0.87 c 1.638,1.002 3.521,1.534 5.441,1.537 2.855,0.009 5.585,-1.162 7.546,-3.237 l 3.257,3.075 c -2.806,2.974 -6.714,4.657 -10.803,4.653 -2.198,0.003 -4.369,-0.488 -6.351,-1.436 -6.623,4.835 -15.912,3.386 -20.748,-3.236 -1.2,-1.644 -2.05,-3.517 -2.496,-5.503 -8.051,-1.829 -13.095,-9.839 -11.266,-17.89 1.829,-8.051 9.838,-13.095 17.89,-11.266 4.148,0.942 7.699,3.608 9.762,7.329 z"
         fill="#231f20"
         id="path11" />
    </g>
  </g>
</svg>
