<?xml version="1.0" encoding="UTF-8" standalone="no"?>
<!-- Created with Inkscape (http://www.inkscape.org/) -->

<svg
   width="14.03939mm"
   height="14.03939mm"
   viewBox="0 0 14.03939 14.03939"
   version="1.1"
   id="svg1"
   inkscape:version="1.3.1 (91b66b0783, 2023-11-16)"
   sodipodi:docname="planet_x.svg"
   xmlns:inkscape="http://www.inkscape.org/namespaces/inkscape"
   xmlns:sodipodi="http://sodipodi.sourceforge.net/DTD/sodipodi-0.dtd"
   xmlns="http://www.w3.org/2000/svg"
   xmlns:svg="http://www.w3.org/2000/svg">
  <sodipodi:namedview
     id="namedview1"
     pagecolor="#ffffff"
     bordercolor="#000000"
     borderopacity="0.25"
     inkscape:showpageshadow="2"
     inkscape:pageopacity="0.0"
     inkscape:pagecheckerboard="0"
     inkscape:deskcolor="#d1d1d1"
     inkscape:document-units="mm"
     inkscape:zoom="1.0449705"
     inkscape:cx="-2.8708943"
     inkscape:cy="232.06396"
     inkscape:window-width="2560"
     inkscape:window-height="1369"
     inkscape:window-x="-8"
     inkscape:window-y="183"
     inkscape:window-maximized="1"
     inkscape:current-layer="layer1" />
  <defs
     id="defs1">
    <clipPath
       id="clip_4">
      <path
         transform="matrix(1,0,0,-1,0,792)"
         d="m 98.08,63.898 h 36 v 35.999998 h -36 z"
         id="path5" />
    </clipPath>
  </defs>
  <g
     inkscape:label="Layer 1"
     inkscape:groupmode="layer"
     id="layer1"
     transform="translate(-105.83333,-87.047918)">
    <g
       clip-path="url(#clip_4)"
       id="g12"
       transform="matrix(0.42587483,0,0,0.42587483,63.417478,-208.3467)">
      <path
         transform="matrix(1,0,0,-1,116.08,693.6184)"
         d="m 0,0 c -9.103,0 -16.483,-7.38 -16.483,-16.483 0,-9.104 7.38,-16.483 16.483,-16.483 9.103,0 16.483,7.379 16.483,16.483 C 16.472,-7.384 9.099,-0.011 0,0 m 0,-30.924 c -7.975,0 -14.44,6.466 -14.44,14.441 0,7.975 6.465,14.44 14.44,14.44 7.975,0 14.44,-6.465 14.44,-14.44 C 14.429,-24.454 7.971,-30.912 0,-30.924 m 7.787,7.19 -5.724,8.272 h 0.05 l 4.46,6.573 H 8.505 L 8.454,-7.524 H 2.215 l 0.05,-1.365 h 2.559 l -3.621,-5.38 -3.721,5.35 h 1.942 l -0.051,1.365 h -8.727 v -1.365 h 1.739 l 5.613,-8.09 -4.531,-6.725 h -2.255 v -1.365 h 6.492 l -0.03,1.365 h -2.498 l 3.651,5.532 3.812,-5.501 H 1.062 v -1.366 H 8.97 v 1.366 z m -3.469,0 -10.305,14.815 h 1.841 L 6.108,-23.734 Z"
         fill="#231f20"
         id="path12" />
    </g>
  </g>
</svg>
